HIERARCHY
ROOT Hips
{
    OFFSET 0.000000 0.000000 0.000000
    CHANNELS 6 Xposition Yposition Zposition Zrotation Xrotation Yrotation
    JOINT Spine
    {
        OFFSET -0.000000 14.517291 0.000000
        CHANNELS 3 Zrotation Xrotation Yrotation
        JOINT Spine1
        {
            OFFSET -0.000000 37.558300 0.000000
            CHANNELS 3 Zrotation Xrotation Yrotation
            JOINT Neck
            {
                OFFSET -0.000000 37.404057 3.400369
                CHANNELS 3 Zrotation Xrotation Yrotation
                JOINT Head
                {
                    OFFSET -0.000000 24.785618 -3.540803
                    CHANNELS 3 Zrotation Xrotation Yrotation
                    End Site
                    {
                        OFFSET -0.000000 35.408028 0.000000
                    }
                }
            }
            JOINT LeftShoulder
            {
                OFFSET 6.992933 33.973492 -0.192664
                CHANNELS 3 Zrotation Xrotation Yrotation
                JOINT LeftArm
                {
                    OFFSET 21.527611 0.000000 0.000000
                    CHANNELS 3 Zrotation Xrotation Yrotation
                    JOINT LeftForeArm
                    {
                        OFFSET 56.353916 0.000000 0.000000
                        CHANNELS 3 Zrotation Xrotation Yrotation
                        JOINT LeftHand
                        {
                            OFFSET 47.774071 0.000000 0.000000
                            CHANNELS 3 Zrotation Xrotation Yrotation
                            End Site
                            {
                                OFFSET 26.556021 0.000000 0.000000
                            }
                        }
                    }
                }
            }
            JOINT RightShoulder
            {
                OFFSET -7.065357 33.973492 -0.192664
                CHANNELS 3 Zrotation Xrotation Yrotation
                JOINT RightArm
                {
                    OFFSET -21.527611 0.000000 0.000000
                    CHANNELS 3 Zrotation Xrotation Yrotation
                    JOINT RightForeArm
                    {
                        OFFSET -56.353916 0.000000 0.000000
                        CHANNELS 3 Zrotation Xrotation Yrotation
                        JOINT RightHand
                        {
                            OFFSET -47.774071 0.000000 0.000000
                            CHANNELS 3 Zrotation Xrotation Yrotation
                            End Site
                            {
                                OFFSET -26.556021 0.000000 0.000000
                            }
                        }
                    }
                }
            }
        }
    }
    JOINT LeftUpLeg
    {
        OFFSET 17.704014 0.000000 0.000000
        CHANNELS 3 Zrotation Xrotation Yrotation
        JOINT LeftLeg
        {
            OFFSET -0.000000 -81.181816 0.000000
            CHANNELS 3 Zrotation Xrotation Yrotation
            JOINT LeftFoot
            {
                OFFSET -0.000000 -62.821102 0.000000
                CHANNELS 3 Zrotation Xrotation Yrotation
                JOINT LeftToeBase
                {
                    OFFSET -0.000000 -11.507608 26.556021
                    CHANNELS 3 Zrotation Xrotation Yrotation
                    End Site
                    {
                        OFFSET -0.000000 0.000000 7.081605
                    }
                }
            }
        }
    }
    JOINT RightUpLeg
    {
        OFFSET -17.704014 0.000000 0.000000
        CHANNELS 3 Zrotation Xrotation Yrotation
        JOINT RightLeg
        {
            OFFSET -0.000000 -81.181816 0.000000
            CHANNELS 3 Zrotation Xrotation Yrotation
            JOINT RightFoot
            {
                OFFSET -0.000000 -62.821102 0.000000
                CHANNELS 3 Zrotation Xrotation Yrotation
                JOINT RightToeBase
                {
                    OFFSET -0.000000 -11.507608 26.556021
                    CHANNELS 3 Zrotation Xrotation Yrotation
                    End Site
                    {
                        OFFSET -0.000000 0.000000 7.081605
                    }
                }
            }
        }
    }
}
MOTION
Frames:    12
Frame Time:    0.008333
25.363201    154.823090    -36.943199    -0.019830    -2.355135    -40.928478    1.235484    -1.465736    -0.278583    -2.086338    3.533500    -0.036692    19.303562    -0.413072    15.811555    -11.465721    10.102264    12.899875    8.982076    9.091512    -21.915419    -32.712231    6.792853    -81.443626    82.503990    -59.067482    -0.048540    -23.233410    -54.816059    -36.418804    -3.159617    3.869144    -0.253864    32.298996    9.695798    78.733727    5.061291    -3.641347    103.996399    10.097228    -7.956120    23.986210    16.835182    -19.941580    3.208053    -12.053877    20.222975    -5.095143    -8.071045    0.219676    37.182438    0.000000    0.000000    0.000000    -15.912191    2.800837    -8.904860    7.733863    31.316490    -2.483459    4.216542    -24.414639    -17.537443    0.000000    0.000000    0.000000    
25.355137    154.825378    -36.937355    -0.013981    -2.356496    -40.943398    1.230855    -1.458672    -0.278194    -2.072396    3.513264    -0.037140    19.309454    -0.411356    15.816031    -11.467905    10.110384    12.904654    8.980516    9.075544    -21.881569    -32.695011    6.797374    -81.444626    82.521828    -59.064598    -0.045118    -23.206051    -54.820786    -36.412251    -3.150171    3.880840    -0.240434    32.304951    9.710826    78.725311    5.079728    -3.614052    103.999321    10.074866    -7.957876    23.985090    16.832895    -19.932907    3.215807    -12.054035    20.222559    -5.094264    -8.068985    0.213073    37.191055    0.000000    0.000000    0.000000    -15.920883    2.796425    -8.892045    7.740487    31.316998    -2.458694    4.196958    -24.413240    -17.556732    0.000000    0.000000    0.000000    
25.344805    154.828323    -36.930618    -0.013607    -2.354863    -40.951149    1.230671    -1.451647    -0.279118    -2.061753    3.494467    -0.038648    19.343885    -0.401923    15.824944    -11.495143    10.110955    12.908839    8.989480    9.063313    -21.852720    -32.710621    6.788261    -81.450157    82.476982    -59.069221    -0.106904    -23.210690    -54.794456    -36.407982    -3.130404    3.886715    -0.227260    32.307198    9.728666    78.714340    5.084805    -3.597675    103.999908    10.068223    -7.949999    23.984394    16.836168    -19.928333    3.216837    -12.051336    20.223833    -5.074349    -8.093570    0.207692    37.183830    0.000000    0.000000    0.000000    -15.918761    2.799605    -8.875983    7.748953    31.305092    -2.497563    4.181849    -24.392275    -17.540190    0.000000    0.000000    0.000000    
25.338490    154.829163    -36.926311    -0.008003    -2.347893    -40.952023    1.227368    -1.446915    -0.279249    -2.038720    3.466320    -0.039596    19.354349    -0.395395    15.827614    -11.500906    10.113535    12.911085    8.986443    9.063870    -21.839838    -32.689068    6.777413    -81.450806    82.471222    -59.060478    -0.129820    -23.138687    -54.793423    -36.362175    -3.129255    3.905117    -0.216077    32.329609    9.733237    78.707619    5.106475    -3.567994    103.999535    10.064833    -7.949111    23.977474    16.841618    -19.937048    3.203871    -12.060364    20.227825    -5.080128    -8.093049    0.197707    37.199558    0.000000    0.000000    0.000000    -15.919199    2.794591    -8.862451    7.764112    31.298780    -2.518334    4.195465    -24.397505    -17.536367    0.000000    0.000000    0.000000    
25.332594    154.832260    -36.917763    -0.000943    -2.344183    -40.950466    1.231502    -1.444487    -0.280201    -2.032665    3.444523    -0.040065    19.349667    -0.380840    15.824917    -11.471203    10.087350    12.910385    8.983547    9.064345    -21.821615    -32.695580    6.762131    -81.455284    82.419907    -59.078850    -0.201836    -23.152027    -54.774807    -36.363960    -3.113678    3.914103    -0.208004    32.331623    9.750843    78.715599    5.060906    -3.589710    103.980385    9.989358    -7.924715    23.994774    16.840775    -19.940075    3.177213    -12.078435    20.218056    -5.054545    -8.071884    0.204037    37.202511    0.000000    0.000000    0.000000    -15.922094    2.797032    -8.856841    7.772058    31.277292    -2.701100    4.272124    -24.376364    -17.358013    0.000000    0.000000    0.000000    
25.324150    154.829605    -36.912243    0.001339    -2.341794    -40.955971    1.228259    -1.435644    -0.271803    -2.015006    3.424993    -0.038435    19.358435    -0.385984    15.826984    -11.461220    10.087448    12.910813    8.991673    9.053034    -21.797781    -32.690628    6.761577    -81.475952    82.411255    -59.051952    -0.217851    -23.146702    -54.735458    -36.379982    -3.105202    3.916683    -0.193431    32.352951    9.753206    78.702637    5.069884    -3.564235    103.990898    9.978759    -7.913839    24.003250    16.845678    -19.938015    3.184409    -12.080296    20.219355    -5.067201    -8.080089    0.186151    37.222977    0.000000    0.000000    0.000000    -15.917595    2.791674    -8.859979    7.757133    31.293739    -2.497647    4.192824    -24.409748    -17.565899    0.000000    0.000000    0.000000    
25.314028    154.832260    -36.903465    0.008067    -2.335450    -40.955872    1.220359    -1.447969    -0.253525    -1.990576    3.428127    -0.032970    19.350143    -0.398476    15.819533    -11.424963    10.071383    12.902395    9.002229    9.042233    -21.796078    -32.716072    6.737359    -81.494186    82.333054    -59.047287    -0.301651    -23.110241    -54.696621    -36.369675    -3.101085    3.902927    -0.209197    32.357204    9.772955    78.692024    5.110569    -3.546334    104.021400    10.069287    -7.935080    23.972393    16.849049    -19.938824    3.176347    -12.086538    20.214098    -5.057516    -8.073122    0.186140    37.209621    0.000000    0.000000    0.000000    -15.916706    2.793921    -8.823976    7.782260    31.276464    -2.537803    4.181738    -24.403564    -17.569378    0.000000    0.000000    0.000000    
25.309124    154.832596    -36.899258    0.016359    -2.331826    -40.952164    1.229522    -1.448780    -0.260636    -1.988723    3.420571    -0.035295    19.328577    -0.401575    15.823070    -11.384397    10.050534    12.908926    8.993985    9.029665    -21.756605    -32.696350    6.724792    -81.499069    82.291252    -59.038204    -0.337216    -23.046232    -54.684750    -36.343475    -3.107454    3.916144    -0.193254    32.375458    9.764790    78.720932    5.108040    -3.528197    104.009979    10.048388    -7.916300    23.979364    16.845316    -19.946320    3.185375    -12.084603    20.219147    -5.073110    -8.074353    0.182193    37.215820    0.000000    0.000000    0.000000    -15.916325    2.790440    -8.850371    7.758201    31.278044    -2.500613    4.198444    -24.415792    -17.569471    0.000000    0.000000    0.000000    
25.299946    154.837616    -36.886276    0.024466    -2.338202    -40.952145    1.222315    -1.440803    -0.248473    -1.977633    3.407200    -0.031985    19.344084    -0.423825    15.827235    -11.376599    10.063814    12.908721    8.992577    9.012061    -21.746485    -32.708885    6.715892    -81.489471    82.185265    -59.025265    -0.441121    -23.090996    -54.601650    -36.401157    -3.101277    3.905754    -0.193979    32.378765    9.785802    78.723282    5.083028    -3.540178    104.011948    10.066781    -7.893124    23.974230    16.830948    -19.933420    3.192342    -12.074573    20.204760    -5.069890    -8.078996    0.184087    37.202896    0.000000    0.000000    0.000000    -15.922231    2.799954    -8.839234    7.753087    31.264971    -2.512752    4.197300    -24.407179    -17.567778    0.000000    0.000000    0.000000    
25.290424    154.840820    -36.878109    0.030878    -2.338420    -40.952271    1.248199    -1.438047    -0.250512    -2.006103    3.398620    -0.032453    19.339699    -0.437338    15.832507    -11.346870    10.057858    12.913488    8.992887    8.990137    -21.698212    -32.670517    6.728038    -81.477150    82.122086    -59.015820    -0.489946    -23.086740    -54.564560    -36.422527    -3.100017    3.911753    -0.167263    32.410049    9.778255    78.744064    5.096897    -3.516341    104.006134    10.061041    -7.887908    23.971680    16.828331    -19.930801    3.194614    -12.072655    20.206844    -5.082437    -8.094410    0.173674    37.205421    0.000000    0.000000    0.000000    -15.920836    2.804775    -8.841585    7.740342    31.253571    -2.525292    4.201402    -24.397392    -17.547672    0.000000    0.000000    0.000000    
25.282646    154.844696    -36.870777    0.041459    -2.337619    -40.946835    1.245789    -1.443276    -0.234488    -1.989406    3.401086    -0.027286    19.334051    -0.442802    15.824844    -11.341413    10.023501    12.902217    8.993303    8.960701    -21.687050    -32.655220    6.728566    -81.455994    82.019234    -59.003674    -0.568479    -23.130724    -54.496574    -36.470295    -3.118966    3.895554    -0.176000    32.439903    9.779181    78.765617    5.070556    -3.521340    103.983032    9.955346    -7.875842    24.007807    16.821774    -19.936274    3.192569    -12.082048    20.203955    -5.059470    -8.076071    0.189308    37.195602    0.000000    0.000000    0.000000    -15.925438    2.805141    -8.847606    7.742260    31.245817    -2.526863    4.189507    -24.391928    -17.569065    0.000000    0.000000    0.000000    
25.274065    154.845612    -36.858810    0.051429    -2.341386    -40.940262    1.252243    -1.440051    -0.221602    -1.983422    3.386441    -0.023760    19.314762    -0.452345    15.827117    -11.316047    10.015930    12.906552    8.981608    8.942060    -21.674559    -32.638325    6.730665    -81.411957    81.853462    -58.993607    -0.708709    -23.095705    -54.428001    -36.428356    -3.127380    3.903714    -0.179954    32.443653    9.776544    78.779236    5.096204    -3.507077    103.992065    10.067584    -7.873475    23.985235    16.810616    -19.932907    3.196422    -12.079834    20.201370    -5.043685    -8.084232    0.181659    37.167793    0.000000    0.000000    0.000000    -15.929976    2.811692    -8.871210    7.717237    31.243019    -2.512208    4.209073    -24.399162    -17.549248    0.000000    0.000000    0.000000    
